<?xml version="1.0" encoding="UTF-8" standalone="no"?> <svg xmlns="http://www.w3.org/2000/svg" width="42" height="42" viewBox="0 0 42 42">
  <defs>
    <style>
      .a {
        fill: #d3d4ed;
      }
    </style>
  </defs>
  <title>10 Shopping Cart_5</title>
  <g>
    <path class="a" d="M12.9,7l-.5-2.47A5.49,5.49,0,0,0,7,0H2.64A2.6,2.6,0,0,0,0,2.24,2.5,2.5,0,0,0,2.5,5H7a.51.51,0,0,1,.5.47l4.29,21.21a5,5,0,0,0,5.27,4L35.69,29.3A5,5,0,0,0,40.27,25L42,12.68A5,5,0,0,0,37,7Z"/>
    <circle class="a" cx="15" cy="38" r="4"/>
    <circle class="a" cx="33" cy="38" r="4"/>
  </g>
</svg>
